<svg xmlns="http://www.w3.org/2000/svg" xmlns:xlink="http://www.w3.org/1999/xlink" width="500" zoomAndPan="magnify" viewBox="0 0 375 374.999991" height="500" preserveAspectRatio="xMidYMid meet" version="1.0"><defs><clipPath id="2db611528c"><path d="M 75 37.5 L 300 37.5 L 300 337.5 L 75 337.5 Z M 75 37.5 " clip-rule="nonzero"/></clipPath><clipPath id="5bcb0c7be9"><path d="M 75 37.5 L 188 37.5 L 188 337.5 L 75 337.5 Z M 75 37.5 " clip-rule="nonzero"/></clipPath></defs><g clip-path="url(#2db611528c)"><path fill="#5d9cec" d="M 187.59375 37.5 C 125.550781 37.5 75.25 87.800781 75.25 149.84375 C 75.25 256.433594 187.59375 337.5 187.59375 337.5 C 187.59375 337.5 299.933594 256.433594 299.933594 149.84375 C 299.933594 87.800781 249.636719 37.5 187.59375 37.5 Z M 187.59375 37.5 " fill-opacity="1" fill-rule="nonzero"/></g><g clip-path="url(#5bcb0c7be9)"><path fill="#ffffff" d="M 75.25 149.84375 C 75.25 256.433594 187.59375 337.5 187.59375 337.5 L 187.59375 37.5 C 125.546875 37.5 75.25 87.800781 75.25 149.84375 Z M 75.25 149.84375 " fill-opacity="0.149" fill-rule="nonzero"/></g><path fill="#4a89dc" d="M 284.109375 149.839844 C 284.109375 151.417969 284.070312 153 283.992188 154.574219 C 283.917969 156.152344 283.800781 157.726562 283.644531 159.300781 C 283.492188 160.871094 283.296875 162.4375 283.066406 164 C 282.832031 165.5625 282.5625 167.121094 282.253906 168.667969 C 281.949219 170.21875 281.601562 171.757812 281.21875 173.292969 C 280.832031 174.824219 280.414062 176.34375 279.953125 177.855469 C 279.496094 179.367188 279 180.867188 278.46875 182.355469 C 277.9375 183.84375 277.367188 185.316406 276.761719 186.773438 C 276.160156 188.234375 275.519531 189.675781 274.84375 191.105469 C 274.167969 192.535156 273.457031 193.945312 272.714844 195.335938 C 271.96875 196.730469 271.191406 198.105469 270.378906 199.457031 C 269.566406 200.8125 268.722656 202.148438 267.84375 203.460938 C 266.964844 204.773438 266.058594 206.066406 265.117188 207.332031 C 264.175781 208.601562 263.203125 209.847656 262.203125 211.070312 C 261.199219 212.289062 260.167969 213.484375 259.109375 214.65625 C 258.046875 215.824219 256.957031 216.96875 255.839844 218.085938 C 254.722656 219.203125 253.582031 220.292969 252.410156 221.351562 C 251.238281 222.414062 250.042969 223.445312 248.824219 224.445312 C 247.601562 225.449219 246.359375 226.421875 245.089844 227.363281 C 243.820312 228.300781 242.527344 229.210938 241.214844 230.089844 C 239.902344 230.964844 238.570312 231.8125 237.214844 232.625 C 235.859375 233.4375 234.484375 234.214844 233.09375 234.957031 C 231.699219 235.703125 230.289062 236.414062 228.859375 237.089844 C 227.433594 237.765625 225.988281 238.402344 224.53125 239.007812 C 223.070312 239.613281 221.597656 240.179688 220.109375 240.714844 C 218.621094 241.246094 217.125 241.742188 215.613281 242.199219 C 214.101562 242.65625 212.578125 243.078125 211.046875 243.460938 C 209.515625 243.847656 207.972656 244.191406 206.425781 244.5 C 204.875 244.808594 203.320312 245.078125 201.757812 245.308594 C 200.195312 245.542969 198.628906 245.734375 197.054688 245.890625 C 195.484375 246.046875 193.910156 246.160156 192.332031 246.238281 C 190.753906 246.316406 189.175781 246.355469 187.59375 246.355469 C 186.015625 246.355469 184.4375 246.316406 182.859375 246.238281 C 181.28125 246.160156 179.707031 246.046875 178.136719 245.890625 C 176.5625 245.734375 174.996094 245.542969 173.433594 245.308594 C 171.871094 245.078125 170.316406 244.808594 168.765625 244.5 C 167.214844 244.191406 165.675781 243.847656 164.144531 243.460938 C 162.613281 243.078125 161.089844 242.65625 159.578125 242.199219 C 158.066406 241.742188 156.566406 241.246094 155.078125 240.714844 C 153.59375 240.179688 152.121094 239.613281 150.660156 239.007812 C 149.199219 238.402344 147.757812 237.765625 146.328125 237.089844 C 144.902344 236.414062 143.492188 235.703125 142.097656 234.957031 C 140.707031 234.214844 139.332031 233.4375 137.976562 232.625 C 136.621094 231.8125 135.289062 230.964844 133.972656 230.089844 C 132.660156 229.210938 131.371094 228.300781 130.101562 227.363281 C 128.832031 226.421875 127.585938 225.449219 126.367188 224.445312 C 125.144531 223.445312 123.949219 222.414062 122.78125 221.351562 C 121.609375 220.292969 120.464844 219.203125 119.347656 218.085938 C 118.230469 216.96875 117.144531 215.824219 116.082031 214.65625 C 115.019531 213.484375 113.988281 212.289062 112.988281 211.070312 C 111.984375 209.847656 111.015625 208.601562 110.074219 207.332031 C 109.132812 206.066406 108.222656 204.773438 107.34375 203.460938 C 106.46875 202.148438 105.625 200.8125 104.8125 199.457031 C 104 198.105469 103.222656 196.730469 102.476562 195.335938 C 101.730469 193.945312 101.023438 192.535156 100.347656 191.105469 C 99.671875 189.675781 99.03125 188.234375 98.425781 186.773438 C 97.824219 185.316406 97.253906 183.84375 96.722656 182.355469 C 96.191406 180.867188 95.695312 179.367188 95.234375 177.855469 C 94.777344 176.34375 94.355469 174.824219 93.972656 173.292969 C 93.589844 171.757812 93.242188 170.21875 92.933594 168.667969 C 92.625 167.121094 92.355469 165.5625 92.125 164 C 91.894531 162.4375 91.699219 160.871094 91.542969 159.300781 C 91.390625 157.726562 91.273438 156.152344 91.195312 154.574219 C 91.117188 153 91.078125 151.417969 91.078125 149.839844 C 91.078125 148.261719 91.117188 146.683594 91.195312 145.105469 C 91.273438 143.527344 91.390625 141.953125 91.542969 140.378906 C 91.699219 138.808594 91.894531 137.242188 92.125 135.679688 C 92.355469 134.117188 92.625 132.558594 92.933594 131.011719 C 93.242188 129.460938 93.589844 127.921875 93.972656 126.390625 C 94.355469 124.855469 94.777344 123.335938 95.234375 121.824219 C 95.695312 120.3125 96.191406 118.8125 96.722656 117.324219 C 97.253906 115.835938 97.824219 114.363281 98.425781 112.90625 C 99.03125 111.445312 99.671875 110.003906 100.347656 108.574219 C 101.023438 107.148438 101.730469 105.734375 102.476562 104.34375 C 103.222656 102.949219 104 101.578125 104.8125 100.222656 C 105.625 98.867188 106.46875 97.53125 107.34375 96.21875 C 108.222656 94.90625 109.132812 93.613281 110.074219 92.347656 C 111.015625 91.078125 111.984375 89.832031 112.988281 88.613281 C 113.988281 87.390625 115.019531 86.195312 116.082031 85.023438 C 117.144531 83.855469 118.230469 82.710938 119.347656 81.59375 C 120.464844 80.476562 121.609375 79.386719 122.78125 78.328125 C 123.949219 77.265625 125.144531 76.234375 126.367188 75.234375 C 127.585938 74.230469 128.832031 73.257812 130.101562 72.320312 C 131.371094 71.378906 132.660156 70.46875 133.972656 69.589844 C 135.289062 68.714844 136.621094 67.867188 137.976562 67.054688 C 139.332031 66.246094 140.707031 65.464844 142.097656 64.722656 C 143.492188 63.976562 144.902344 63.265625 146.328125 62.589844 C 147.757812 61.917969 149.199219 61.277344 150.660156 60.671875 C 152.121094 60.066406 153.59375 59.5 155.078125 58.96875 C 156.566406 58.433594 158.066406 57.9375 159.578125 57.480469 C 161.089844 57.023438 162.613281 56.601562 164.144531 56.21875 C 165.675781 55.832031 167.214844 55.488281 168.765625 55.179688 C 170.316406 54.871094 171.871094 54.601562 173.433594 54.371094 C 174.996094 54.136719 176.5625 53.945312 178.136719 53.789062 C 179.707031 53.636719 181.28125 53.519531 182.859375 53.441406 C 184.4375 53.363281 186.015625 53.324219 187.59375 53.324219 C 189.175781 53.324219 190.753906 53.363281 192.332031 53.441406 C 193.910156 53.519531 195.484375 53.636719 197.054688 53.789062 C 198.628906 53.945312 200.195312 54.136719 201.757812 54.371094 C 203.320312 54.601562 204.875 54.871094 206.425781 55.179688 C 207.972656 55.488281 209.515625 55.832031 211.046875 56.21875 C 212.578125 56.601562 214.101562 57.023438 215.613281 57.480469 C 217.125 57.9375 218.621094 58.433594 220.109375 58.96875 C 221.597656 59.5 223.070312 60.066406 224.53125 60.671875 C 225.988281 61.277344 227.433594 61.917969 228.859375 62.589844 C 230.289062 63.265625 231.699219 63.976562 233.09375 64.722656 C 234.484375 65.464844 235.859375 66.246094 237.214844 67.054688 C 238.570312 67.867188 239.902344 68.714844 241.214844 69.589844 C 242.527344 70.46875 243.820312 71.378906 245.089844 72.320312 C 246.359375 73.257812 247.601562 74.230469 248.824219 75.234375 C 250.042969 76.234375 251.238281 77.265625 252.410156 78.328125 C 253.582031 79.386719 254.722656 80.476562 255.839844 81.59375 C 256.957031 82.710938 258.046875 83.855469 259.109375 85.023438 C 260.167969 86.195312 261.199219 87.390625 262.203125 88.613281 C 263.203125 89.832031 264.175781 91.078125 265.117188 92.347656 C 266.058594 93.613281 266.964844 94.90625 267.84375 96.21875 C 268.722656 97.53125 269.566406 98.867188 270.378906 100.222656 C 271.191406 101.574219 271.96875 102.949219 272.714844 104.34375 C 273.457031 105.734375 274.167969 107.148438 274.84375 108.574219 C 275.519531 110.003906 276.160156 111.445312 276.761719 112.90625 C 277.367188 114.363281 277.9375 115.835938 278.46875 117.324219 C 279 118.8125 279.496094 120.3125 279.953125 121.824219 C 280.414062 123.335938 280.832031 124.855469 281.21875 126.390625 C 281.601562 127.921875 281.949219 129.460938 282.253906 131.011719 C 282.5625 132.558594 282.832031 134.117188 283.066406 135.679688 C 283.296875 137.242188 283.492188 138.808594 283.644531 140.378906 C 283.800781 141.953125 283.917969 143.527344 283.992188 145.105469 C 284.070312 146.683594 284.109375 148.261719 284.109375 149.839844 Z M 284.109375 149.839844 " fill-opacity="1" fill-rule="nonzero"/><path fill="#ffffff" d="M 238.839844 115.914062 L 217.765625 94.84375 L 184.050781 94.84375 L 123.84375 155.050781 L 178.636719 209.84375 L 238.839844 149.636719 L 238.84375 149.636719 Z M 215.953125 130.964844 C 212.464844 134.460938 206.804688 134.460938 203.308594 130.964844 C 199.820312 127.476562 199.820312 121.816406 203.308594 118.320312 C 206.804688 114.828125 212.464844 114.828125 215.953125 118.320312 C 219.449219 121.816406 219.449219 127.476562 215.953125 130.964844 Z M 215.953125 130.964844 " fill-opacity="1" fill-rule="nonzero"/></svg>